<svg width="640" height="420" viewBox="0 0 640 420" fill="none" xmlns="http://www.w3.org/2000/svg">
  <rect width="640" height="420" rx="32" fill="#120B1E"/>
  <circle cx="109" cy="80" r="72" fill="url(#paint0_radial)"/>
  <circle cx="534" cy="320" r="90" fill="url(#paint1_radial)"/>
  <rect x="60" y="74" width="250" height="270" rx="28" fill="rgba(255,255,255,0.08)" stroke="rgba(255,255,255,0.18)"/>
  <rect x="330" y="106" width="250" height="212" rx="28" fill="rgba(255,255,255,0.08)" stroke="rgba(255,255,255,0.18)"/>
  <circle cx="183" cy="152" r="46" fill="url(#paint2_linear)"/>
  <circle cx="452" cy="168" r="38" fill="url(#paint3_linear)"/>
  <rect x="122" y="222" width="122" height="18" rx="9" fill="#F3EDFF" fill-opacity="0.95"/>
  <rect x="112" y="253" width="142" height="12" rx="6" fill="#BFAFD8" fill-opacity="0.8"/>
  <rect x="101" y="279" width="164" height="12" rx="6" fill="#BFAFD8" fill-opacity="0.55"/>
  <rect x="385" y="230" width="140" height="14" rx="7" fill="#F3EDFF" fill-opacity="0.92"/>
  <rect x="375" y="259" width="160" height="12" rx="6" fill="#BFAFD8" fill-opacity="0.75"/>
  <path d="M312 198C330 186 350 186 370 198" stroke="#6FFFE9" stroke-width="8" stroke-linecap="round"/>
  <path d="M332 168L370 198L332 228" stroke="#8A45FF" stroke-width="8" stroke-linecap="round" stroke-linejoin="round"/>
  <defs>
    <radialGradient id="paint0_radial" cx="0" cy="0" r="1" gradientUnits="userSpaceOnUse" gradientTransform="translate(109 80) rotate(90) scale(72)">
      <stop stop-color="#FF8A3D" stop-opacity="0.45"/>
      <stop offset="1" stop-color="#FF8A3D" stop-opacity="0"/>
    </radialGradient>
    <radialGradient id="paint1_radial" cx="0" cy="0" r="1" gradientUnits="userSpaceOnUse" gradientTransform="translate(534 320) rotate(90) scale(90)">
      <stop stop-color="#8A45FF" stop-opacity="0.42"/>
      <stop offset="1" stop-color="#8A45FF" stop-opacity="0"/>
    </radialGradient>
    <linearGradient id="paint2_linear" x1="137" y1="106" x2="229" y2="198" gradientUnits="userSpaceOnUse">
      <stop stop-color="#FF8A3D"/>
      <stop offset="1" stop-color="#C466FF"/>
    </linearGradient>
    <linearGradient id="paint3_linear" x1="414" y1="130" x2="490" y2="206" gradientUnits="userSpaceOnUse">
      <stop stop-color="#6FFFE9"/>
      <stop offset="1" stop-color="#8A45FF"/>
    </linearGradient>
  </defs>
</svg>
